<?xml version="1.0"?><svg id="Layer_2" xmlns="http://www.w3.org/2000/svg" viewBox="0 0 399.6306 158.8712"><g id="Components"><g id="a83e3f6b-de82-42b6-8167-81a7d2ce4a2a_1"><path d="M88.6306,31.17v16.86l.08,7.27h-2.94l.08-7.27V7.27L85.7706,0h19.18C113.0706,0,124.1306,1.55,124.1306,15.32s-10.75,15.86-19.18,15.86h-16.32v-.01ZM88.6306,28.85h16.09c7.5,0,16.55-1.86,16.55-13.54s-9.2-12.92-16.55-12.92h-16.09v26.46Z" style="fill:#1c1c1c;"></path><path d="M134.8206,16.71l-.08,6.73v17.71c0,8.43,3.64,12.99,10.13,12.99,7.19,0,12.53-6.27,14.85-11.68v-19.03l-.08-6.73h2.86l-.08,6.73v25.06l.08,6.81h-2.71v-9.36h-.15c-2.63,4.64-7.43,10.44-15.08,10.44s-12.45-5.26-12.45-15.08v-17.87l-.08-6.73h2.78l.01.01Z" style="fill:#1c1c1c;"></path><path d="M174.2406,48.58v-25.06l-.08-6.81h2.63v12.45h.15c3.02-10.06,9.05-13.54,14.54-13.54.46,0,1.24.08,1.55.15v2.48c-.54-.15-1.24-.15-1.55-.15-6.34,0-12.69,6.57-14.62,16.63v13.85l.08,6.73h-2.78l.08-6.73h0Z" style="fill:#1c1c1c;"></path><path d="M201.9706,55.31l.08-6.73v-25.06l-.08-6.81h2.78l-.08,6.81v25.06l.08,6.73h-2.78ZM202.0506,8.59V0h2.63v8.59h-2.63Z" style="fill:#1c1c1c;"></path><path d="M234.1806,18.87h-10.98v29.24c0,4.64,1.93,6.11,5.03,6.11,2.78,0,4.8-.85,6.11-1.39v2.24c-1.39.54-3.25,1.31-6.42,1.31-4.1,0-7.35-1.62-7.35-8.04v-29.47h-7.27v-2.17h7.27l.39-10.98h2.24v10.98h10.98v2.17h0Z" style="fill:#1c1c1c;"></path><path d="M243.6006,23.75c2.71-4.25,7.04-8.12,15.47-8.12,7.35,0,13.69,3.79,13.69,13.77v14.46c0,6.03.46,8.89.7,11.45h-2.55c-.39-3.17-.62-6.65-.54-10.44h-.15c-1.93,6.27-8.43,11.53-15.93,11.53-5.72,0-11.99-2.63-11.99-10.36,0-13.46,19.8-13.61,27.38-13.61h.54v-3.02c0-8.35-4.95-11.68-11.29-11.68-7.19,0-10.83,3.33-13.54,7.43l-1.78-1.39-.01-.02ZM270.2106,37.82v-3.33h-.54c-8.12,0-24.6.62-24.6,11.37,0,6.11,4.56,8.35,9.59,8.35,7.19,0,15.55-6.57,15.55-16.4v.01Z" style="fill:#1c1c1c;"></path><path d="M310.7006,55.31l.08-6.73v-17.71c0-8.43-3.63-12.92-10.13-12.92-7.19,0-12.53,6.27-14.85,11.68v18.95l.08,6.73h-2.78l.08-6.73v-25.06l-.08-6.81h2.63v9.44h.15c2.55-4.72,7.35-10.52,15.08-10.52s12.53,5.26,12.53,15.08v17.87l.08,6.73h-2.8699Z" style="fill:#1c1c1c;"></path><path d="M122.6706,122.9765l-16.24-24.13h-17.79v16.86l.08,7.27h-2.94l.08-7.27v-40.76l-.08-7.27h19.18c7.89,0,20.73,1.55,20.73,15.39,0,11.22-9.13,14.93-16.24,15.62l16.78,24.13v.15h-3.56v.01ZM88.6306,96.5165h17.25c6.65,0,16.86-2.4,16.86-13.46,0-11.99-11.22-12.99-18.49-12.99h-15.62v26.45h0Z" style="fill:#1c1c1c;"></path><path d="M163.2706,116.7065c-1.24,1.55-6.65,7.35-16.09,7.35-10.36,0-17.87-6.88-17.87-19.72s7.5-21.04,17.64-21.04c12.61,0,17.25,11.06,16.86,19.8h-31.79v1.24c0,11.14,6.34,17.48,15.32,17.48,7.97,0,13.07-5.11,14.31-6.65l1.62,1.55v-.01ZM132.1806,101.0065h28.77c.08-7.12-4.1-15.55-14-15.55-7.81,0-13.69,5.57-14.77,15.55Z" style="fill:#1c1c1c;"></path><path d="M166.9106,84.3765h7.58v-7.35c0-7.89,4.02-9.9,8.35-9.9,1.86,0,3.09.31,3.94.54v2.24c-.85-.23-2.24-.62-3.87-.62-3.33,0-5.8,1.86-5.8,7.66v7.43h9.67v2.17h-9.67v29.7l.08,6.73h-2.78l.08-6.73v-29.7h-7.58v-2.17h0Z" style="fill:#1c1c1c;"></path><path d="M188.6406,103.7165c0-10.75,7.12-20.42,18.33-20.42s18.25,9.67,18.25,20.42-7.12,20.34-18.25,20.34-18.33-9.67-18.33-20.34ZM222.5206,103.7165c0-10.05-6.27-18.18-15.55-18.18s-15.55,8.12-15.55,18.18,6.27,18.1,15.55,18.1,15.55-8.12,15.55-18.1Z" style="fill:#1c1c1c;"></path><path d="M232.1906,116.2465v-25.06l-.08-6.81h2.63v12.45h.15c3.02-10.06,9.05-13.54,14.54-13.54.46,0,1.24.08,1.55.15v2.48c-.54-.15-1.24-.15-1.55-.15-6.34,0-12.69,6.57-14.62,16.63v13.85l.08,6.73h-2.78l.08-6.73h0Z" style="fill:#1c1c1c;"></path><path d="M285.0206,122.9765l.08-6.73v-18.02c0-8.04-3.48-12.61-9.67-12.61-6.81,0-11.45,6.34-13.69,11.99v18.64l.08,6.73h-2.78l.08-6.73v-25.06l-.08-6.81h2.63v9.44h.15c2.47-4.64,6.73-10.52,13.92-10.52,6.11,0,10.67,3.79,11.53,10.91h.15c2.4-4.64,6.81-10.91,14.39-10.91s11.91,5.26,11.91,15.08v17.87l.08,6.73h-2.78l.08-6.73v-17.71c0-8.43-3.4-12.92-9.67-12.92-6.81,0-11.45,6.34-13.69,11.99v18.64l.08,6.73h-2.7999Z" style="fill:#1c1c1c;"></path><path d="M356.0306,116.7065c-1.24,1.55-6.65,7.35-16.09,7.35-10.36,0-17.87-6.88-17.87-19.72s7.5-21.04,17.64-21.04c12.61,0,17.25,11.06,16.86,19.8h-31.79v1.24c0,11.14,6.34,17.48,15.32,17.48,7.97,0,13.07-5.11,14.31-6.65l1.62,1.55v-.01ZM324.9306,101.0065h28.77c.08-7.12-4.1-15.55-14-15.55-7.81,0-13.69,5.57-14.77,15.55Z" style="fill:#1c1c1c;"></path><path d="M363.9906,103.6365c0-11.91,6.81-20.34,16.78-20.34,8.28,0,12.69,5.18,14.39,11.6h.15v-20.42l-.08-6.81h2.78l-.08,6.81v41.85l.08,6.65h-2.63v-10.67h-.15c-1.86,7.04-6.81,11.76-14.39,11.76-9.05,0-16.86-7.19-16.86-20.42l.01-.01ZM366.7006,103.6365c0,11.68,6.42,18.18,14.39,18.18s14.39-6.58,14.39-17.71v-.23c0-11.22-5.88-18.33-14.39-18.33s-14.39,7.43-14.39,18.1v-.01Z" style="fill:#1c1c1c;"></path><path d="M92.947,143.1029v13.1452l.0198,2.1974h-1.6431l.0198-2.1974v-13.1452h-5.5332v-1.4056h12.67v1.4056h-5.553.0198Z" style="fill:#1c1c1c;"></path><path d="M114.3573,158.4455l.0198-2.1974v-5.6421h-10.4429v5.6421l.0198,2.1974h-1.6431l.0198-2.1974v-12.3433l-.0198-2.1974h1.6431l-.0198,2.1974v5.3452h10.4429v-5.3452l-.0198-2.1974h1.6431l-.0198,2.1974v12.3433l.0198,2.1974h-1.6431Z" style="fill:#1c1c1c;"></path><path d="M131.7489,150.596h-8.2454v6.4439h10.1855v1.4056h-11.8088l.0198-2.1974v-12.3433l-.0198-2.1974h11.8088v1.4056h-10.1855v6.1371h8.2454v1.3561-.01Z" style="fill:#1c1c1c;"></path><path d="M136.4309,150.0615c0-4.8304,2.9992-8.7799,8.1266-8.7799s8.1761,3.9594,8.1761,8.7799-3.019,8.8096-8.1761,8.8096-8.1266-3.9594-8.1266-8.8096ZM150.9816,150.0615c0-4.5434-2.7221-7.3545-6.4142-7.3545s-6.3944,2.8112-6.3944,7.3545,2.7221,7.3744,6.3944,7.3744,6.4142-2.8112,6.4142-7.3744Z" style="fill:#1c1c1c;"></path><path d="M157.2374,158.4455l.0198-2.1974v-12.3433l-.0198-2.1974h1.6431l-.0198,2.1974v13.1452h9.3045v1.4056h-10.918l-.0099-.01Z" style="fill:#1c1c1c;"></path><path d="M169.9569,150.0615c0-4.8304,2.9992-8.7799,8.1266-8.7799s8.1761,3.9594,8.1761,8.7799-3.019,8.8096-8.1761,8.8096-8.1266-3.9594-8.1266-8.8096ZM184.5076,150.0615c0-4.5434-2.7221-7.3545-6.4142-7.3545s-6.3944,2.8112-6.3944,7.3545,2.7221,7.3744,6.3944,7.3744,6.4142-2.8112,6.4142-7.3744Z" style="fill:#1c1c1c;"></path><path d="M204.7994,158.4455h-1.3066v-2.9497h-.0495c-1.0096,2.5538-3.118,3.3753-5.6223,3.3753-4.8304,0-8.0573-2.9993-8.0573-8.4533,0-4.8503,2.5736-9.1362,8.0078-9.1362,3.7911,0,5.8104,2.1579,6.9091,4.5632l-1.4551.584c-.683-1.6629-2.3855-3.7218-5.4343-3.7218-3.702,0-6.3053,2.8607-6.3053,7.5624,0,5.1076,3.0883,7.1665,6.4439,7.1665,2.831,0,5.4145-1.6431,5.5035-5.4837v-.0198h-5.365v-1.3858h6.7507l-.0198,2.1974v5.7015Z" style="fill:#1c1c1c;"></path><path d="M209.6002,158.4455l.0198-2.1974v-12.3433l-.0198-2.1974h1.6431l-.0198,2.1974v12.3433l.0198,2.1974h-1.6431Z" style="fill:#1c1c1c;"></path><path d="M231.0798,154.1298c-.584,1.7322-2.831,4.7315-7.3348,4.7315s-7.9881-2.8309-7.9881-8.6018c0-5.2462,3.2071-8.9977,8.1068-8.9977,3.7911,0,5.949,2.1579,7.0477,4.5632l-1.4551.584c-.7028-1.7124-2.5043-3.7218-5.6223-3.7218-3.603,0-6.3449,2.8607-6.3449,7.5228,0,5.2264,3.2071,7.2159,6.3053,7.2159,3.4645,0,5.4343-2.4845,5.8995-3.8406l1.3858.5345v.01Z" style="fill:#1c1c1c;"></path><path d="M234.673,158.4455h-1.5738l6.1568-16.7482h2.0886l6.1568,16.7482h-1.7322l-1.8015-5.0383h-7.4931l-1.8015,5.0383h0ZM236.9694,152.0214h6.5132l-3.2071-9.0373h-.0495l-3.2566,9.0373Z" style="fill:#1c1c1c;"></path><path d="M251.2331,158.4455l.0198-2.1974v-12.3433l-.0198-2.1974h1.6431l-.0198,2.1974v13.1452h9.3045v1.4056h-10.918l-.0099-.01Z" style="fill:#1c1c1c;"></path><path d="M282.7695,145.3697c-.8216-1.0097-2.6924-2.7221-5.6025-2.7221-2.3657,0-4.6127,1.079-4.6127,3.3061s2.4152,2.6726,5.1076,3.0883c2.9002.4454,6.6815,1.0492,6.6815,4.8304,0,2.9794-2.3459,4.9888-6.4934,4.9888s-6.6023-2.0589-7.5228-3.2566l1.0789-1.0097c.9404.9799,2.8805,2.8804,6.3746,2.8804,2.6429,0,4.9393-1.079,4.9393-3.4645,0-2.6429-2.8112-3.019-5.2462-3.3952-3.0685-.4652-6.533-1.1482-6.533-4.5632,0-2.8112,2.3657-4.781,6.1172-4.781s5.9292,1.8708,6.82,3.0685l-1.0987,1.0294h-.0099Z" style="fill:#1c1c1c;"></path><path d="M298.5873,150.596h-8.2454v6.4439h10.1855v1.4056h-11.8088l.0198-2.1974v-12.3433l-.0198-2.1974h11.8088v1.4056h-10.1855v6.1371h8.2454v1.3561-.01Z" style="fill:#1c1c1c;"></path><path d="M304.8233,156.2381v-12.3433l-.0198-2.1974h2.534l5.8797,14.2934h.0495l5.8797-14.2934h2.3459l-.0198,2.1974v12.3433l.0198,2.1974h-1.6431l.0198-2.1974v-11.3634l.0495-1.3561h-.0495l-6.0875,14.9269h-1.2373l-6.1172-14.9269h-.0495l.0495,1.3561v11.3634l.0198,2.1974h-1.6431l.0198-2.1974h0Z" style="fill:#1c1c1c;"></path><path d="M327.3521,158.4455l.0198-2.1974v-12.3433l-.0198-2.1974h1.6431l-.0198,2.1974v12.3433l.0198,2.1974h-1.6431Z" style="fill:#1c1c1c;"></path><path d="M346.4957,141.6973h1.6431l-.0198,2.1974v12.3433l.0198,2.1974h-1.4749l-10.1657-14.0063h-.0495l.0495,1.2373v10.5616l.0198,2.1974h-1.6431l.0198-2.1974v-12.3433l-.0198-2.1974h1.4749l10.1657,13.937h.0495l-.0495-1.2373v-10.4923l-.0198-2.1974Z" style="fill:#1c1c1c;"></path><path d="M353.4544,158.4455h-1.5738l6.1568-16.7482h2.0886l6.1568,16.7482h-1.7322l-1.8015-5.0383h-7.4931l-1.8015,5.0383h0ZM355.7508,152.0214h6.5132l-3.2071-9.0373h-.0495l-3.2566,9.0373Z" style="fill:#1c1c1c;"></path><path d="M380.8929,158.4455l-4.286-6.9784h-4.9393v4.781l.0198,2.1974h-1.6629l.0198-2.1974v-12.3433l-.0198-2.1974h6.4439c2.3855,0,6.2756.4652,6.2756,4.8503,0,3.1873-2.3459,4.4048-4.4543,4.781l4.6622,7.0774v.0495h-2.0589v-.0199ZM371.6576,150.0813h4.4741c2.0886,0,4.8502-.4256,4.8502-3.5139,0-3.3457-2.8805-3.4645-5.0383-3.4645h-4.286v6.9784Z" style="fill:#1c1c1c;"></path><path d="M391.4545,156.2381v-4.7315l-6.5825-9.7698v-.0495h1.9896l5.4541,8.4335,5.4837-8.4335h1.8312v.0495l-6.5825,9.7698v4.7315l.0198,2.1974h-1.6431l.0198-2.1974h.0099Z" style="fill:#1c1c1c;"></path><path d="M23.0246,152.5437l33.87-8.3884L56.8658,0H0l.0288,158.5133,12.7648-3.4167c6.296-22.276,7.2461-42.2774.739-64.6686h7.6973c6.2864,21.6522,7.5725,40.0508,2.0059,61.3671-.0576.2112-.2112.7487-.2112.7487ZM13.4559,75.4077c.8542-.1248,2.5721-.2784,3.5991-.4223,3.8198-.5471,6.2288-.739,7.822-.6335,2.1691.144,3.4647.6526,4.2421,1.1901l.0288.048.0288-.048c.7774-.5375,2.0731-1.0461,4.2421-1.1901,1.5836-.1056,3.9926.096,7.8221.6335,1.0269.1439,2.6969.2879,3.5511.4223l2.2363,4.0309c-.4127-.0671-3.5511-.4606-6.3248-.8542-2.2075-.3167-5.1443-.7102-6.8431-.6046-1.3725.0864-1.6412.2495-2.0731.595-.144.1152-.2975.4511-.2975.4511h-4.6836s-.1536-.3264-.2975-.4511c-.4223-.3359-.7006-.5087-2.0635-.595-1.6988-.1056-4.6357.2975-6.8431.6046-2.7642.3936-5.9601.787-6.3729.8542l2.2363-4.0309h-.0096ZM12.6113,86.5889l-1.4396-3.5895h35.9239c-4.0694,13.8782-6.1617,23.8501-6.0369,40.2428h-10.5958l-.0384-3.6374h3.6855c.048-13.859,2.0251-22.4776,5.0579-33.0158H12.6113Z" style="fill:#1c1c1c;"></path></g></g></svg>