<?xml version="1.0"?><svg id="Layer_2" xmlns="http://www.w3.org/2000/svg" viewBox="0 0 58.3419 162.5457"><g id="Components"><path id="_02226ba9-09e6-4487-b2fe-56a260723921_1" d="M23.6104,156.4242l34.7316-8.6017-.0295-147.8224H0l.0295,162.5457,13.0895-3.5037c6.4562-22.8427,7.4305-43.3529.7578-66.3137h7.8931c6.4464,22.203,7.7651,41.0696,2.0569,62.9282-.0591.2166-.2166.7677-.2166.7677ZM13.7982,77.326c.8759-.128,2.6376-.2855,3.6907-.433,3.917-.561,6.3873-.7578,8.021-.6496,2.2242.1476,3.5529.6693,4.35,1.2204l.0295.0492.0295-.0492c.7972-.5511,2.1258-1.0728,4.35-1.2204,1.6239-.1083,4.0942.0984,8.0211.6496,1.053.1476,2.7655.2952,3.6414.433l2.2932,4.1335c-.4232-.0688-3.6415-.4724-6.4857-.8759-2.2636-.3248-5.2752-.7283-7.0172-.62-1.4074.0886-1.683.2559-2.1259.6102-.1476.1181-.3051.4626-.3051.4626h-4.8027s-.1575-.3347-.3051-.4626c-.433-.3445-.7184-.5216-2.116-.6102-1.742-.1083-4.7536.3051-7.0172.62-2.8345.4036-6.1118.8071-6.535.8759l2.2932-4.1335h-.0098ZM12.9321,88.7916l-1.4763-3.6808h36.8377c-4.1729,14.2312-6.3184,24.4568-6.1905,41.2665h-10.8653l-.0394-3.73h3.7792c.0492-14.2115,2.0766-23.0494,5.1866-33.8557H12.9321Z" style="fill:#1c1c1c;"></path></g></svg>